<?xml version="1.0" encoding="UTF-8"?>
<svg width="24px" height="24px" viewBox="0 0 24 24" version="1.1" xmlns="http://www.w3.org/2000/svg" xmlns:xlink="http://www.w3.org/1999/xlink">
    <!-- Generator: Sketch 55.2 (78181) - https://sketchapp.com -->
    <title>ic_manage_members</title>
    <desc>Created with Sketch.</desc>
    <g id="ic_manage_members" stroke="none" stroke-width="1" fill="none" fill-rule="evenodd">
        <g id="ic_person_add_24px">
            <polygon id="Path" points="0 0 24 0 24 24 0 24"></polygon>
            <path d="M13.7101213,18 C13.8987225,17.3662906 14,16.6949726 14,16 C14,14.6007192 13.5894297,13.2973322 12.8821851,12.2037349 C13.6622084,12.0679878 14.3985847,12 15,12 C17.67,12 23,13.34 23,16 L23,18 L13.7101213,18 Z M15,10 C12.79,10 11,8.21 11,6 C11,3.79 12.79,2 15,2 C17.21,2 19,3.79 19,6 C19,8.21 17.21,10 15,10 Z" id="Combined-Shape" fill="#0082FF" fill-rule="nonzero"></path>
        </g>
        <g id="baseline-settings-20px" transform="translate(0.000000, 9.000000)">
            <polygon id="Shape" points="0 0 14 0 14 14 0 14"></polygon>
            <path d="M10.7075987,8.03625 C10.7288135,7.864375 10.7429567,7.685625 10.7429567,7.5 C10.7429567,7.314375 10.7288135,7.135625 10.7005271,6.96375 L11.8956266,6.05625 C12.0017005,5.97375 12.0299869,5.8225 11.9663425,5.705625 L10.8348874,3.80125 C10.7641715,3.6775 10.615668,3.63625 10.4883793,3.6775 L9.08113198,4.2275 C8.78412501,4.0075 8.47297485,3.82875 8.12646673,3.69125 L7.91431889,2.23375 C7.89310411,2.09625 7.772887,2 7.63145511,2 L5.36854489,2 C5.227113,2 5.11396749,2.09625 5.0927527,2.23375 L4.88060487,3.69125 C4.53409674,3.82875 4.21587499,4.014375 3.92593962,4.2275 L2.51869232,3.6775 C2.39140362,3.629375 2.24290014,3.6775 2.17218419,3.80125 L1.04072908,5.705625 C0.970013133,5.829375 0.998299511,5.97375 1.11144502,6.05625 L2.30654449,6.96375 C2.27825811,7.135625 2.25704332,7.32125 2.25704332,7.5 C2.25704332,7.67875 2.27118651,7.864375 2.29947289,8.03625 L1.10437343,8.94375 C0.998299511,9.02625 0.970013133,9.1775 1.03365748,9.294375 L2.1651126,11.19875 C2.23582854,11.3225 2.38433202,11.36375 2.51162073,11.3225 L3.91886802,10.7725 C4.21587499,10.9925 4.52702515,11.17125 4.87353327,11.30875 L5.08568111,12.76625 C5.11396749,12.90375 5.227113,13 5.36854489,13 L7.63145511,13 C7.772887,13 7.89310411,12.90375 7.9072473,12.76625 L8.11939513,11.30875 C8.46590326,11.17125 8.78412501,10.985625 9.07406038,10.7725 L10.4813077,11.3225 C10.6085964,11.370625 10.7570999,11.3225 10.8278158,11.19875 L11.9592709,9.294375 C12.0299869,9.170625 12.0017005,9.02625 11.888555,8.94375 L10.7075987,8.03625 L10.7075987,8.03625 Z M6.5,9.5625 C5.33318691,9.5625 4.37852166,8.634375 4.37852166,7.5 C4.37852166,6.365625 5.33318691,5.4375 6.5,5.4375 C7.66681309,5.4375 8.62147834,6.365625 8.62147834,7.5 C8.62147834,8.634375 7.66681309,9.5625 6.5,9.5625 Z" id="Shape" fill="#0082FF" fill-rule="nonzero"></path>
        </g>
    </g>
</svg>