<?xml version="1.0" encoding="UTF-8"?>
<svg width="290px" height="492px" viewBox="0 0 290 492" version="1.1" xmlns="http://www.w3.org/2000/svg" xmlns:xlink="http://www.w3.org/1999/xlink">
    <!-- Generator: Sketch 55.2 (78181) - https://sketchapp.com -->
    <title>back</title>
    <desc>Created with Sketch.</desc>
    <g id="Page-1" stroke="none" stroke-width="1" fill="none" fill-rule="evenodd">
        <g id="back" fill="#31679D" fill-rule="nonzero">
            <path d="M97.608,246.104 L281.664,62.04 C286.732,56.984 289.52,50.224 289.52,43.016 C289.52,35.804 286.732,29.048 281.664,23.984 L265.536,7.864 C260.476,2.792 253.712,0 246.504,0 C239.296,0 232.54,2.792 227.476,7.864 L8.328,227.008 C3.244,232.088 0.46,238.876 0.479892835,246.092 C0.46,253.34 3.24,260.12 8.328,265.204 L227.272,484.136 C232.336,489.208 239.092,492 246.304,492 C253.512,492 260.268,489.208 265.336,484.136 L281.46,468.016 C291.952,457.524 291.952,440.444 281.46,429.956 L97.608,246.104 Z" id="Path"></path>
        </g>
    </g>
</svg>