<svg width="84" height="84" viewBox="0 0 84 84" fill="none" xmlns="http://www.w3.org/2000/svg">
<path fill-rule="evenodd" clip-rule="evenodd" d="M69.9586 55.7554V55.7938C69.9586 55.8323 69.9536 55.8707 69.949 55.9137L69.944 55.9475V55.9764C69.8918 56.668 69.7868 57.3885 69.6295 58.1135C69.1186 60.4524 68.0737 62.6285 66.5275 64.5831C64.9336 66.5954 62.7815 68.3868 60.1281 69.9142C58.0764 71.0861 55.7234 72.1044 53.1418 72.9305C49.7253 74.0348 46.8287 74.5105 45.7457 74.6642L45.5448 74.6976C45.4211 74.7123 45.3061 74.7315 45.2252 74.7411L45.1298 74.7507L45.1057 74.7553C45.0344 74.7699 44.9625 74.7795 44.8771 74.7937L44.543 74.8372C43.6599 74.962 41.2979 75.2502 38.3154 75.2502C37.8668 75.2502 37.4086 75.2452 36.9505 75.231C36.1774 75.2068 35.4234 75.1638 34.6884 75.1011C32.799 74.9474 31.0237 74.6688 29.3916 74.2704C26.4332 73.5449 23.8707 72.426 21.7754 70.937C21.0882 70.4567 20.4346 69.9096 19.8238 69.3186C18.7312 68.2619 17.8099 67.0707 17.0754 65.7647L17.0086 65.6348L16.9845 65.5918C16.56 64.8137 16.1923 63.9779 15.8869 63.1038C15.4287 61.7831 15.1137 60.3518 14.961 58.8628L14.9565 58.8006C14.9515 58.7571 14.9419 58.6419 14.9515 58.5074C14.9706 58.0655 15.1092 57.6575 15.3524 57.3162C15.386 57.2682 15.4192 57.2252 15.4573 57.1817L16.1305 56.3798L15.3669 55.6644C15.2333 55.5395 15.1187 55.4096 15.0278 55.2801C14.7988 54.9535 14.6511 54.5885 14.5888 54.1946C14.4456 53.2916 14.3215 52.3694 14.2311 51.4472C14.0784 49.939 14.002 48.4839 14.002 47.1102C13.9975 47.0384 14.002 46.9661 14.002 46.8989V46.6926C14.007 46.2507 14.0166 45.8134 14.0357 45.3815C14.2979 39.3058 16.0637 34.1042 19.2893 29.9163C21.265 27.3418 24.892 23.7976 30.9569 21.5209C31.4342 21.3429 31.9114 21.1796 32.3791 21.031L33.1663 20.7766L33.0899 18.3654C33.0758 17.9524 32.9372 17.5727 32.6986 17.3087C32.0209 16.5453 31.5869 15.6084 31.4487 14.6048C31.2574 13.2554 31.606 11.9009 32.4218 10.7961C33.2426 9.70102 34.4403 8.99519 35.7861 8.80306C36.0247 8.76921 36.2633 8.75 36.5019 8.75C39.0262 8.75 41.1979 10.647 41.551 13.1639C41.6987 14.1963 41.5319 15.2338 41.0738 16.1514C40.9161 16.478 40.8874 16.8815 40.9879 17.2754L41.6033 19.5662L42.4196 19.59C42.9536 19.5996 43.469 19.6239 43.9417 19.6623C47.5014 19.9262 52.7364 20.9683 57.4751 24.4407C61.1589 27.1451 64.0223 30.9007 65.9785 35.5977C66.4893 36.8324 66.9379 38.1242 67.3434 39.5363L67.3624 39.6036C67.9688 41.76 68.4314 44.0943 68.7273 46.5242C68.7987 47.0864 68.6891 47.6148 68.4028 48.0951L67.8828 48.9738L68.7178 49.5598C68.8178 49.6316 68.8991 49.7039 68.9755 49.7757C69.3477 50.1408 69.5863 50.5923 69.6818 51.1064C69.9681 52.7152 70.0636 54.276 69.9586 55.7554Z" fill="#889BAF"/>
<path fill-rule="evenodd" clip-rule="evenodd" d="M51.7804 55.8773C53.5637 55.6583 54.4379 53.588 53.3572 52.1574L42.7879 38.1628C41.7071 36.7322 39.4838 37.0052 38.7813 38.6548L31.9116 54.7906C31.209 56.4402 32.5581 58.2375 34.3414 58.0185L51.7804 55.8773ZM42.0656 48.8421C41.4288 48.9203 40.8437 48.4632 40.7655 47.8263L40.4811 45.5104C40.4029 44.8735 40.86 44.2884 41.4969 44.2102C42.1338 44.132 42.7189 44.5891 42.7971 45.226L43.0814 47.5419C43.1596 48.1788 42.7025 48.7639 42.0656 48.8421ZM41.192 51.3002L41.4764 53.6162L43.7923 53.3318L43.508 51.0159L41.192 51.3002Z" fill="white"/>
</svg>
