<?xml version="1.0" encoding="UTF-8"?>
<svg width="45px" height="45px" viewBox="0 0 45 45" version="1.1" xmlns="http://www.w3.org/2000/svg" xmlns:xlink="http://www.w3.org/1999/xlink">
    <!-- Generator: Sketch 51.3 (57544) - http://www.bohemiancoding.com/sketch -->
    <title>isologo_okrs</title>
    <desc>Created with Sketch.</desc>
    <defs></defs>
    <g id="isologo_okrs" stroke="none" stroke-width="1" fill="none" fill-rule="evenodd">
        <g id="isologo_follow-ups" transform="translate(5.000000, 2.000000)">
            <path d="M35.9746251,29.6845494 L35.9746251,29.708818 C35.9717033,29.7330866 35.9717033,29.7602443 35.9655675,29.787691 L35.9655675,29.8087815 L35.9623536,29.826983 C35.9284607,30.2638179 35.8612594,30.7188543 35.759873,31.1770686 C35.4317552,32.6510975 34.7597419,34.0283409 33.7657466,35.2628617 C32.7413646,36.5337855 31.3578937,37.6654537 29.6550705,38.6269527 C28.3329573,39.3700343 26.8238492,40.0102633 25.1639763,40.5349274 C22.9644476,41.2326498 21.1056004,41.5328293 20.4061222,41.6299038 L20.2801927,41.6481052 C20.1975059,41.6602395 20.1238766,41.6694847 20.0718686,41.6755519 L20.0105109,41.6845081 L19.9982393,41.6876862 C19.9520749,41.6937533 19.9029887,41.7027096 19.8509807,41.7087767 L19.6330147,41.7391125 C19.0685235,41.8179855 17.5500656,42 15.6298607,42 C15.3414793,42 15.0469622,41.9939328 14.7553668,41.9849766 C14.669466,41.9817985 14.5835652,41.9789094 14.4976644,41.9728423 C12.8290261,41.9121708 11.2828112,41.7119548 9.89612632,41.3782614 C7.99432867,40.9232251 6.34701954,40.2165464 4.99714935,39.2761379 C4.55537365,38.9696023 4.13521924,38.6269527 3.74252973,38.2507893 C3.08892375,37.6319399 2.53086053,36.9342175 2.07973508,36.1758236 C2.04292044,36.1215081 2.01224157,36.0637257 1.9786409,36.0062322 L1.93247651,35.9273593 L1.92020496,35.8999126 C1.64409515,35.4055843 1.40801396,34.8777421 1.214591,34.3285204 C0.917152067,33.4944316 0.717593334,32.590426 0.616499159,31.6471284 L0.613577362,31.6107255 C0.610363386,31.5803898 0.607441589,31.5075839 0.610363386,31.4226438 C0.62555673,31.1467329 0.714671537,30.8887345 0.868065878,30.6734951 C0.889394996,30.6431593 0.91393809,30.6157127 0.935559388,30.5853769 L1.37119931,30.0789142 L0.880337425,29.6270559 C0.794436594,29.5510721 0.720807311,29.46931 0.659449575,29.3843699 C0.598091838,29.2994297 0.542869876,29.2084225 0.502841257,29.111348 C0.441775701,28.9839379 0.401747082,28.8443934 0.377203988,28.7016709 C0.285167384,28.1313586 0.208616303,27.5489121 0.150180364,26.9667545 C0.116579699,26.6298831 0.0859008307,26.2933007 0.0642795332,25.9656745 C0.0213291178,25.3679156 0,24.785758 0,24.2275801 L0,23.9635145 C0.0368146417,19.7685127 1.18099033,16.2013166 3.39892641,13.3679569 C4.67195334,11.7390712 7.00325514,9.50058126 10.9023932,8.0655555 C11.2091819,7.95345766 11.5159706,7.85031608 11.8166235,7.75324166 L12.3226787,7.59549572 L12.2706707,6.07264072 C12.261321,5.80886409 12.1724983,5.57224519 12.0220258,5.40236495 C11.5834641,4.92017087 11.3073542,4.33165719 11.2153176,3.69749541 C11.0958161,2.84520509 11.316704,1.98973675 11.8440884,1.29201434 C12.3717649,0.600647988 13.1387366,0.151678785 14.0068025,0.0332248767 C14.157275,0.0121343028 14.3106693,0 14.4640637,0 C16.0868297,0 17.4825721,1.19811794 17.7128097,2.78771161 C17.8048463,3.43978593 17.6973242,4.09186025 17.4028071,4.67430678 C17.3017129,4.87770081 17.2833056,5.13541029 17.3507991,5.3841635 L17.7434886,6.83103465 L18.2679512,6.84316895 C18.6115545,6.85241413 18.9428863,6.86743756 19.2496749,6.88881704 C21.5351045,7.05869728 24.9033521,7.71683875 27.9464036,9.90996953 C28.1059337,10.0252454 28.2654638,10.1434104 28.4220721,10.2679315 C30.563165,11.9421763 32.241153,14.1870223 33.4130857,16.9565325 C33.7444175,17.736017 34.0295849,18.5490153 34.2934231,19.4437757 L34.3056947,19.4862457 C34.6954624,20.8484657 34.9899795,22.3196054 35.1831103,23.8543058 C35.2260607,24.2122678 35.1585672,24.5459611 34.974494,24.8493186 L34.6402404,25.4043185 L35.1740527,25.7744148 C35.2383323,25.8168848 35.2935542,25.8625329 35.3426404,25.9110701 C35.489899,26.0535037 35.6064787,26.2173168 35.6862438,26.3964423 C35.7353299,26.5085401 35.7721446,26.623816 35.7937659,26.748337 L35.7966877,26.7665385 C35.9807609,27.7765747 36.0391968,28.7594533 35.9746251,29.6845494" id="Fill-19" fill="#2BCBE0"></path>
            <path d="M24.8814826,31.8809047 C24.8598486,31.901881 24.835291,31.9197392 24.8107335,31.9375974 C24.7493396,32.0030776 24.6911616,32.0685578 24.6265518,32.1309198 C24.6052101,32.1518962 24.5774367,32.1666363 24.556095,32.1876126 C24.4947011,32.2499747 24.4333072,32.3154549 24.3686975,32.3781004 C24.3473558,32.4019114 24.3227982,32.4166515 24.2982407,32.4345097 C24.2368468,32.4999899 24.1754529,32.56547 24.1108431,32.6281156 C24.0895014,32.6488084 24.0649439,32.6666667 24.0433098,32.6845249 C23.9789924,32.7471704 23.9205221,32.8126506 23.8562046,32.8781308 C23.8345706,32.8988236 23.8100131,32.9138472 23.7854555,32.9317054 C23.724354,32.9969021 23.6626677,33.0626658 23.5983503,33.1250278 C23.5767163,33.1457207 23.5524511,33.1638624 23.5276011,33.1817206 C23.4664996,33.2469173 23.4051057,33.3123975 23.3437118,33.375043 C23.3191543,33.3957359 23.2943044,33.4107595 23.2729627,33.4314523 C23.2083529,33.4940979 23.1501749,33.559578 23.0858575,33.6219401 C23.0642234,33.6457511 23.0396659,33.6607747 23.0151083,33.6786329 C22.9537144,33.7441131 22.8923205,33.8095932 22.8280031,33.8719553 C22.8063691,33.8929316 22.7818115,33.9107899 22.7604699,33.9286481 C22.6958601,33.9941282 22.6376821,34.0596084 22.5730723,34.1219705 C22.5517306,34.1429468 22.5271731,34.1576869 22.5026155,34.1786633 C22.4412216,34.2410253 22.3798277,34.3065055 22.315218,34.369151 C22.2938763,34.3898439 22.2693187,34.4077021 22.2447612,34.4255603 C22.1833673,34.4910405 22.1219734,34.5565207 22.0573636,34.6191662 C22.0360219,34.6398591 22.0114644,34.6577173 21.9898303,34.6755755 C21.9255129,34.7382211 21.8670425,34.8037012 21.8027251,34.8691814 C21.7810911,34.8898743 21.7565335,34.9048979 21.731976,34.9227561 C21.6705821,34.9882362 21.6091882,35.0537164 21.5448708,35.1160785 C21.5232368,35.1370548 21.4989715,35.1546296 21.4741216,35.1727713 C21.4130201,35.2382514 21.3513339,35.3034481 21.28994,35.3660937 C21.2685983,35.3867865 21.2411172,35.4018101 21.2194832,35.422503 C21.1580893,35.4851485 21.0966954,35.5506287 21.032378,35.6129907 C21.0107439,35.6368017 20.9861864,35.6518253 20.9616288,35.6696835 C20.9002349,35.7351637 20.838841,35.8006439 20.7745236,35.8630059 C20.7528896,35.8839823 20.728332,35.9018405 20.7069903,35.9196987 C20.6423806,35.9820608 20.5842026,36.047541 20.5195928,36.1130211 C20.4982511,36.1339974 20.4736936,36.1487376 20.449136,36.1665958 C20.3877421,36.232076 20.3263482,36.2975561 20.2617384,36.3602017 C20.2403968,36.3808945 20.2158392,36.3987528 20.1912816,36.416611 C20.1298878,36.4820912 20.0684939,36.5475713 20.0071,36.6102168 C19.9825424,36.6309097 19.9579849,36.6459333 19.9363508,36.6666262 C19.8720334,36.7292717 19.813563,36.7947519 19.7492456,36.8571139 C19.7276116,36.8809249 19.703054,36.8959485 19.6784965,36.9138067 C19.6171026,36.9792869 19.5557087,37.0447671 19.4913913,37.1071291 C19.4697572,37.1281054 19.4451997,37.1459637 19.4206421,37.1638219 C19.3592482,37.2293021 19.3010702,37.2947822 19.2364605,37.3571443 C19.2151188,37.3781206 19.1876377,37.3928608 19.1660037,37.4138371 C19.1046098,37.4761992 19.0432159,37.5416793 18.9788985,37.6040414 C18.9572644,37.6278524 18.9327069,37.6428759 18.9081493,37.6607342 C18.8467554,37.7262143 18.7853615,37.7916945 18.7210441,37.8540566 C18.6994101,37.8750329 18.6748525,37.8928911 18.6535108,37.9107494 C18.5889011,37.9731114 18.530723,38.0385916 18.4661133,38.1040718 C18.4447716,38.1250481 18.420214,38.1397882 18.3956565,38.1576464 C18.3342626,38.2231266 18.2728687,38.2886068 18.2082589,38.3512523 C18.1869173,38.3719452 18.1623597,38.3898034 18.1378021,38.4076616 C18.0764082,38.4731418 18.0150144,38.538622 17.9536205,38.6012675 C17.9290629,38.6219604 17.9045054,38.6369839 17.8828713,38.6576768 C17.8185539,38.7203223 17.7600835,38.7858025 17.6957661,38.8481646 C17.6741321,38.8719755 17.6495745,38.8869991 17.625017,38.9048574 C17.5636231,38.9703375 17.5022292,39.0358177 17.4379118,39.0981798 C17.4162777,39.1191561 17.3917202,39.1370143 17.3703785,39.1548725 C17.3057687,39.2172346 17.2475907,39.2827148 17.1829809,39.3481949 C17.1616393,39.3691713 17.1370817,39.3839114 17.1125241,39.4048877 C17.0511303,39.4672498 16.9897364,39.53273 16.9251266,39.5953755 C16.9037849,39.6160684 16.8792274,39.6339266 16.8546698,39.6517848 C16.7932759,39.717265 16.731882,39.7827451 16.6672723,39.8451072 C16.6459306,39.8660835 16.621373,39.8839418 16.6000313,39.9018 C16.5354216,39.9641621 16.4772435,40.0296422 16.4126338,40.0951224 C16.3912921,40.1160987 16.3667345,40.1308389 16.342177,40.1486971 C16.2807831,40.2141772 16.2193892,40.2796574 16.1547794,40.3423029 C16.1334377,40.3629958 16.1088802,40.380854 16.0843226,40.3987123 C16.0229287,40.4641924 15.9615348,40.5296726 15.900141,40.5923181 C15.8785069,40.613011 15.8510258,40.6280346 15.8293918,40.6487274 C15.7679979,40.711373 15.706604,40.7768531 15.6422866,40.8392152 C15.6206526,40.8630262 15.596095,40.8780498 15.5715375,40.895908 C15.5101436,40.9613882 15.4487497,41.0268683 15.3844323,41.0892304 C15.3627982,41.1102067 15.3382407,41.128065 15.316899,41.1459232 C15.2522892,41.2082852 15.1941112,41.2737654 15.1295014,41.3392456 C15.1081597,41.3602219 15.0836022,41.374962 15.0590446,41.3928203 C14.9976507,41.4583004 14.9362569,41.5237806 14.8716471,41.5864261 C14.8503054,41.607119 14.8257478,41.6249772 14.8011903,41.6428354 C14.7397964,41.7083156 14.6784025,41.7737958 14.6170086,41.8361578 C14.5924511,41.8571342 14.5678935,41.8718743 14.5462595,41.8928506 C14.5097155,41.9285671 14.4758027,41.9642835 14.4418898,42 C12.7722683,41.9404726 11.2251423,41.7440321 9.83793265,41.4166312 C7.934722,40.9701755 6.28644218,40.2768228 4.93577656,39.3541477 C4.49374054,39.0536759 4.07333855,38.7172042 3.68041765,38.3481342 C3.02642652,37.7409545 2.46803446,37.0566725 2.01664317,36.3125797 C1.97980684,36.259005 1.94910989,36.2023123 1.91548943,36.1459029 L1.86929783,36.0685173 C1.58074654,35.5565814 1.34452623,35.0386928 1.15128165,34.5001114 C0.853375098,33.6814675 0.653991125,32.7947924 0.552545027,31.8689992 C0.546405638,31.803519 0.54348212,31.7320861 0.546405638,31.6487477 C0.561900287,31.3780396 0.650775255,31.1249064 0.804259984,30.9137257 C0.825894022,30.883962 0.850451579,30.8573164 0.871793265,30.8275527 L1.3076899,30.330357 L0.816538763,29.8870194 C0.730587314,29.8124684 0.656914644,29.7322481 0.595520752,29.6489097 C0.53412686,29.5655713 0.478872357,29.4762801 0.439112503,29.3810363 C0.377718611,29.2560287 0.337666406,29.1191156 0.313108849,28.9790844 C0.221018011,28.4198101 0.144421822,27.8483468 0.0859514487,27.2768835 C0.0523309841,26.9463646 0.0216340381,26.6161291 0,26.294681 C0.0798120595,26.2172953 0.159624119,26.133957 0.242652049,26.0596894 C0.328603498,25.976351 0.411339076,25.8898945 0.500506395,25.8096742 C0.583241973,25.7263358 0.666269903,25.6429974 0.755144871,25.5624937 C0.841096319,25.4791553 0.92412425,25.3929822 1.01299922,25.3124785 C1.09895067,25.2291401 1.1819786,25.1458017 1.26763769,25.0624633 C1.35358914,24.982243 1.43661707,24.8957865 1.52549204,24.8155662 C1.61144349,24.7322278 1.69447142,24.6457713 1.78334638,24.565551 C1.86637431,24.4822126 1.94910989,24.3988742 2.03827721,24.318654 C2.12422866,24.2353156 2.20696424,24.1488591 2.29613156,24.0686388 C2.38208301,23.9853004 2.46481859,23.8988439 2.5539859,23.8186236 C2.63672148,23.7352852 2.71974941,23.6519468 2.80862438,23.571443 C2.89457583,23.4881046 2.97760376,23.4019316 3.06647873,23.3214278 C3.15243017,23.2380895 3.2354581,23.1547511 3.32140955,23.0745308 C3.407361,22.9911924 3.49009658,22.9047359 3.57897155,22.8245156 C3.664923,22.7411772 3.74795093,22.6547207 3.83682589,22.5745004 C3.91985382,22.491162 4.0025894,22.4078236 4.09175672,22.3273198 C4.17770817,22.2442649 4.26044375,22.1578084 4.34961107,22.0775881 C4.43556252,21.9942497 4.51829809,21.9077932 4.60424954,21.8275729 C4.69020099,21.7442345 4.77322892,21.6608962 4.86210389,21.5803924 C4.94805534,21.497054 5.03108327,21.410881 5.11995824,21.3303772 C5.20590968,21.2470388 5.28893761,21.1637004 5.37488906,21.0834801 C5.46084051,21.0001417 5.54357609,20.9136852 5.63274341,20.8334649 C5.71840251,20.7501265 5.80143044,20.66367 5.8903054,20.5834498 C5.97333333,20.5001114 6.05606891,20.416773 6.14523623,20.3362692 C6.23118768,20.2532143 6.31392326,20.1667578 6.40309058,20.0865375 C6.48904203,20.0031991 6.5717776,19.9198607 6.65772905,19.8365223 C6.7436805,19.7560185 6.82670843,19.6698455 6.9155834,19.5893418 C7.00153485,19.5060034 7.08456278,19.4198303 7.17343774,19.3393266 C7.25646567,19.2559882 7.33920125,19.1726498 7.42836857,19.0924295 C7.51432002,19.0090911 7.5970556,18.9226346 7.68622292,18.8424143 C7.77217437,18.7590759 7.85490995,18.6726194 7.94086139,18.5923991 C8.02681284,18.5090607 8.10954842,18.4257223 8.19871574,18.3452186 C8.28466719,18.2618802 8.36740277,18.1757071 8.45657009,18.0952034 C8.54252153,18.011865 8.62525711,17.9288101 8.71120856,17.8483063 C8.79716001,17.7649679 8.88018794,17.6787949 8.96906291,17.5982911 C9.05501436,17.5149527 9.13804229,17.4287797 9.22691725,17.3482759 C9.30994518,17.2649375 9.39268076,17.1815991 9.48184808,17.1013788 C10.2521952,16.3513333 11.1424067,15.7024844 12.1399113,15.1965012 C12.5512503,14.9881553 13.0576038,15.1400919 13.2756983,15.5389257 C13.4782981,15.9167831 13.3432315,16.3751443 12.9810076,16.6013485 C12.9163978,16.699427 12.8304464,16.7827654 12.7231532,16.8482456 C12.6585435,16.9466075 12.572592,17.0327806 12.4682224,17.0982607 C12.403905,17.1966227 12.3179535,17.2799611 12.2106604,17.3454413 C12.1460506,17.4435198 12.0600992,17.5299763 11.9528061,17.5954565 C11.8881963,17.693535 11.8022448,17.7799915 11.6978752,17.8454717 C11.6335578,17.9435502 11.5476064,18.0268886 11.4400209,18.0923687 C11.3757035,18.1904473 11.289752,18.2769038 11.1821665,18.3423839 C11.1207726,18.4404625 11.0348212,18.5238008 10.9275281,18.5923991 C10.8629183,18.6904776 10.7769668,18.773816 10.6696737,18.8392962 C10.605064,18.9376582 10.5191125,19.0238312 10.4147429,19.0893114 C10.3504255,19.1876734 10.264474,19.2710118 10.1568885,19.3364919 C10.0925711,19.4345705 10.0066197,19.5210269 9.89932655,19.5865071 C9.83793265,19.6845856 9.74876534,19.7710421 9.64439572,19.8365223 C9.58007831,19.9346008 9.49412686,20.0179392 9.38654137,20.0834194 C9.32222396,20.1814979 9.23627251,20.2679544 9.1319029,20.3334346 C9.09506656,20.3898439 9.04887497,20.4405839 8.99975985,20.4882059 C8.70506917,21.0505983 8.47498825,21.6430379 8.30922475,22.259005 C8.36447925,22.1935249 8.42879666,22.1371156 8.49954581,22.0923283 C8.56707909,21.9942497 8.65303054,21.9077932 8.75740016,21.8454312 C8.82493344,21.7442345 8.91088489,21.657778 9.0152545,21.595416 C9.07957191,21.4942194 9.16873923,21.410881 9.26989298,21.3454008 C9.33742626,21.2470388 9.42337771,21.1608658 9.52774732,21.0982203 C9.59235709,20.9970236 9.68123205,20.9136852 9.78560167,20.8482051 C9.85021143,20.7470084 9.9390864,20.66367 10.0405325,20.5981899 C10.1077734,20.5001114 10.1937249,20.4136549 10.2980945,20.3512928 C10.3627043,20.2500962 10.4515792,20.1667578 10.5530253,20.1012776 C10.6205586,20.0031991 10.70651,19.9167426 10.8108797,19.8543805 C10.8751971,19.7531839 10.9643644,19.6667274 11.068734,19.6043653 C11.1330514,19.5031687 11.2222187,19.4198303 11.3233725,19.3543502 C11.3909058,19.2559882 11.4768572,19.1698151 11.5812268,19.1071696 C11.6458366,19.005973 11.7347116,18.9226346 11.8361577,18.8571544 C11.9036909,18.7559578 11.9896424,18.6726194 12.0937197,18.6102573 C12.1612529,18.5090607 12.2472044,18.4226042 12.3518664,18.3602422 C12.4161838,18.2590455 12.5050587,18.1757071 12.6065048,18.110227 C12.6740381,18.011865 12.7599896,17.925692 12.8643592,17.8633299 C12.9286766,17.7621333 13.0178439,17.6787949 13.1222135,17.6133147 C13.1865309,17.5121181 13.2756983,17.4287797 13.376852,17.3632995 C13.4443853,17.2649375 13.5303367,17.1787645 13.6347063,17.116119 C13.6993161,17.0149224 13.7881911,16.931584 13.8896372,16.8661038 C13.9571705,16.7680253 14.0431219,16.6815688 14.1474915,16.6192067 C14.2150248,16.5180101 14.3009762,16.4315536 14.4053459,16.3691915 C14.4696633,16.2679949 14.5585382,16.1846565 14.6599843,16.1191763 C14.7275176,16.0208144 14.8134691,15.9346413 14.9178387,15.8719958 C14.9821561,15.7710826 15.0713234,15.6877442 15.175693,15.6222641 C15.2400104,15.5210674 15.3259619,15.437729 15.4303315,15.3722489 C15.4978648,15.2738869 15.5838162,15.1877139 15.6881859,15.1250683 C15.7527956,15.0238717 15.8416706,14.9405333 15.9431167,14.8750531 C16.01065,14.7769746 16.0966014,14.6905181 16.200971,14.6281561 C16.2652884,14.5269594 16.3544558,14.4405029 16.458533,14.3781409 C16.6061707,14.1519367 16.8669486,14 17.1645628,14 C23.1378961,14 28,18.7142886 28,24.5060236 C28,27.2828363 26.8919864,29.9017595 24.8814826,31.8809047 Z" id="Fill-21" fill="#24ABBD"></path>
            <path d="M24.1803841,31 C23.9616396,31 23.7425946,30.92258 23.5743296,30.7671771 C23.2347948,30.4535558 23.2308886,29.941458 23.5656158,29.6233323 C25.3116659,27.9631669 26.2734807,25.7655661 26.2734807,23.4345215 C26.2734807,18.573111 22.0521321,14.6179364 16.8632596,14.6179364 C16.3864086,14.6179364 16,14.2558925 16,13.809109 C16,13.3623254 16.3864086,13 16.8632596,13 C23.0043318,13 28,17.6809516 28,23.4345215 C28,26.1932058 26.8621078,28.794235 24.7954528,30.7590128 C24.6262864,30.9194832 24.4033353,31 24.1803841,31" id="Fill-23" fill="#FFFFFF"></path>
            <path d="M16.6847488,35 C13.8616895,35 11.2153362,33.7691547 9.23346446,31.534306 C8.9190071,31.1797674 8.92267671,30.6087405 9.24165051,30.2592218 C9.56090658,29.9100169 10.0743697,29.9140957 10.3888271,30.2686344 C12.0632983,32.1571018 14.29922,33.1968728 16.6847488,33.1968728 C17.7921242,33.1968728 18.8721186,32.9725408 19.8939639,32.5295243 C20.3117349,32.34849 20.7817272,32.5781557 20.9443192,33.0421935 C21.1071934,33.5059176 20.9005661,34.0286268 20.4833597,34.2093474 C19.2726707,34.7342529 17.9945173,35 16.6847488,35" id="Fill-25" fill="#FFFFFF"></path>
            <path d="M7.45015897,28 C7.11072296,28 6.79162986,27.7905268 6.66695688,27.4516301 C6.22435325,26.2497154 6,24.9849879 6,23.692506 C6,19.6508707 8.21359937,15.9738414 11.7770962,14.0961784 C12.1856981,13.8808621 12.6902023,14.0392087 12.9043841,14.4499749 C13.1185659,14.8604489 12.960763,15.3679175 12.5524517,15.5832338 C9.54082903,17.1702052 7.67015302,20.2772453 7.67015302,23.692506 C7.67015302,24.7854479 7.85963271,25.8541411 8.23307044,26.8687862 C8.39319821,27.3035088 8.17262293,27.7867288 7.73990015,27.9474126 C7.64457908,27.9830552 7.54635188,28 7.45015897,28" id="Fill-27" fill="#FFFFFF"></path>
            <path d="M17,18.6561278 C14.0534354,18.6561278 11.6561278,21.0534354 11.6561278,24 C11.6561278,26.9465646 14.0534354,29.3441604 17,29.3441604 C19.9465646,29.3441604 22.3438722,26.9465646 22.3438722,24 C22.3438722,21.0534354 19.9465646,18.6561278 17,18.6561278 M17,31 C13.1402165,31 10,27.8597835 10,24 C10,20.1402165 13.1402165,17 17,17 C20.8597835,17 24,20.1402165 24,24 C24,27.8597835 20.8597835,31 17,31" id="Fill-29" fill="#FFFFFF"></path>
            <path d="M19,23.5 C19,22.1191501 17.8806412,21 16.5001345,21 C15.1193588,21 14,22.1191501 14,23.5 C14,24.8808499 15.1193588,26 16.5001345,26 C17.8806412,26 19,24.8808499 19,23.5" id="Fill-31" fill="#FFFFFF"></path>
        </g>
    </g>
</svg>